<svg width="320" height="190" viewBox="0 0 320 190" fill="none" xmlns="http://www.w3.org/2000/svg">
<mask id="mask0_1_659" style="mask-type:alpha" maskUnits="userSpaceOnUse" x="0" y="0" width="320" height="190">
<rect width="320" height="190" fill="#FFE4C2"/>
</mask>
<g mask="url(#mask0_1_659)">
<path d="M78.5 54C119.7 43.2 120.333 1.5 115.5 -18L-21 -22.5C-40.3334 31.1667 -65.7 140.2 -12.5 147C54 155.5 27 67.5 78.5 54Z" fill="#F9EBFF"/>
<path d="M81.5 151C77.9 181.4 50.3333 193.667 37 196L285.5 218.5C274.667 208.167 258.8 182.5 282 162.5C311 137.5 327.5 63.5 260.5 55.5C193.5 47.5 193.5 94 155 95.5C116.5 97 86 113 81.5 151Z" fill="#F9EBFF"/>
<path d="M153.5 22C164.3 2.39999 135.5 -6.83336 131 -15.5C175.5 -23.5 284.4 -34.9 274 -6.50002C261 29 223.5 -4.50001 204.5 26C185.5 56.5 140 46.5 153.5 22Z" fill="#F9EBFF"/>
<path d="M142.612 201.281C122.697 189.536 112.452 167.273 110.239 160.849C108.121 154.7 108.027 146.358 117.968 143.562C118.544 141.286 120.549 136.238 123.957 134.253C128.217 131.772 132.567 132.919 134.192 133.814C124.749 120.234 107.576 91.7812 114.43 86.6113C122.997 80.1489 146.768 119.698 153.36 128.171C147.92 111.879 137.682 74.8354 146.861 72.1398C158.334 68.7703 174.308 130.957 175.175 135.29C176.441 135.008 177.714 134.783 178.986 134.621C198.956 132.084 206.727 158.907 198.585 180.052C190.401 201.305 162.528 213.026 142.612 201.281Z" fill="#FFB53D"/>
<path d="M175.075 135.23C169.917 114.099 156.891 71.0131 147.3 72.1844C137.709 73.3557 147.514 111.175 153.36 128.171C143.734 113.599 121.95 81.6074 114.973 86.2253C107.197 91.3728 123.35 117.765 134.412 133.876" stroke="#271A58" stroke-linecap="round"/>
<path d="M119.9 159.219C126.484 169.509 145.024 189.088 150.596 178.326C154.026 171.701 133.244 140.303 119.366 143.221C108.022 145.605 108.026 154.425 110.239 160.849C112.452 167.273 122.697 189.536 142.612 201.281C162.528 213.026 190.401 201.305 198.585 180.052C206.727 158.907 198.956 132.084 178.986 134.621C157.401 137.364 135.687 158.418 146.829 161.882C152.291 163.581 161.972 160.444 171.95 156.93M182.896 153.116C179.338 154.29 175.624 155.636 171.95 156.93M171.95 156.93C168.835 161.377 163.693 172.583 168.046 181.827" stroke="#271A58" stroke-linecap="round"/>
<path d="M118.012 143.614C120.118 134.598 130.716 122.119 150.137 148.458" stroke="#271A58" stroke-linecap="round"/>
<path d="M157.442 161.636C158.663 164.263 159.647 169.625 156.212 171.626C152.778 173.626 149.999 171.041 149.038 169.498" stroke="#271A58" stroke-linecap="round"/>
<path d="M91.1677 92.7177C88.9616 115.187 69.2008 119.672 56.6549 119.141C44.109 118.611 22.5932 109.364 18.2323 92.735C13.8715 76.1065 22.7141 60.9714 26.1892 56.4054C26.9503 51.2918 33.6479 39.7493 42.4614 34.1248C49.5122 29.6251 53.9134 35.9758 55.2326 39.7135C58.8409 35.534 62.084 34.7504 66.2631 36.5489C69.6064 37.9878 71.8665 43.0384 72.5787 45.3839C75.2214 42.3738 81.1072 38.58 86.9441 42.8488C91.6137 46.2638 90.6068 52.9264 89.5197 55.8308C94.7854 52.3118 100.834 50.7829 103.785 60.372C106.146 68.0434 96.219 80.5292 90.9605 85.8131C91.5627 87.0656 91.3495 90.938 91.1677 92.7177Z" fill="#FFB53D"/>
<path d="M55.2798 39.5087C53.8259 35.3451 48.7483 28.8149 40.0697 36.0026C29.2215 44.9873 23.6384 57.7849 26.8755 63.732C29.4651 68.4897 35.303 67.4083 37.766 66.2425" stroke="#271A58"/>
<path d="M38.4063 98.1179C49.0265 83.8712 60.8195 84.6342 71.5067 86.0098C65.2096 84.5581 51.1452 77.5434 52.2199 69.0875C53.5633 58.5176 93.9253 64.6312 91.1677 92.7176C88.9616 115.187 69.6615 119.508 56.6549 119.141C43.6483 118.775 22.3496 109.158 18.2323 92.735C14.115 76.312 22.7141 60.9713 26.1892 56.4053" stroke="#271A58"/>
<path d="M90.9444 85.8094C97.3834 79.9162 108.631 65.7579 102.109 56.2694C95.5862 46.7809 83.5941 60.3916 78.4133 68.3829" stroke="#271A58"/>
<path d="M89.5555 56.0284C90.7944 52.2403 91.4778 44.0741 84.2981 41.7225C76.6453 39.2159 68.5126 46.1144 59.6017 64.2391" stroke="#271A58"/>
<path d="M72.6779 44.9534C70.7774 39.6513 64.7271 31.0549 55.7299 39.0865C44.4833 49.1261 32.2933 67.139 40.0921 75.2008C44.2515 79.5005 51.5101 76.9976 53.6236 74.472" stroke="#271A58"/>
<path d="M210.147 80.0664C203.14 103.628 201.271 118.928 211.015 135.488C220.76 152.048 250.388 158.286 268.692 140.386C282.538 126.846 302.667 99.1816 297.379 90.7503C292.954 83.6966 275.139 101.451 269.682 109.456C282.654 81.346 306.069 47.0528 296.864 43.0778C289.553 39.9209 268.672 72.8961 259.144 89.7784C265.911 76.0586 290.329 33.7569 283.011 28.6404C272.62 21.3749 249.42 71.0636 242.482 84.2074C248.876 70.2071 270.549 26.3409 258.128 27.1702C249.135 27.7707 230.42 69.5367 227.172 81.112C233.407 53.1521 247.244 35.0506 237.58 34.155C234 33.8233 218.904 50.6148 210.147 80.0664Z" fill="#FFB53D"/>
<path d="M262.592 110.898C250.067 108.154 237.841 115.379 232.162 125.775M211.015 135.488C201.271 118.928 203.14 103.628 210.147 80.0664C218.904 50.6148 234 33.8233 237.58 34.155C247.244 35.0506 233.407 53.1521 227.172 81.112C230.42 69.5367 249.135 27.7707 258.128 27.1702C270.549 26.3409 248.876 70.2071 242.482 84.2074C249.42 71.0636 272.62 21.3749 283.011 28.6404C290.329 33.7569 265.911 76.0586 259.144 89.7784C268.672 72.8961 289.553 39.9209 296.864 43.0778C306.069 47.0528 282.654 81.346 269.682 109.456C275.139 101.451 292.954 83.6966 297.379 90.7503C302.667 99.1816 282.538 126.846 268.692 140.386C250.388 158.286 220.76 152.048 211.015 135.488Z" stroke="#271A58"/>
</g>
</svg>
