<svg width="99" height="101" viewBox="0 0 99 101" fill="none" xmlns="http://www.w3.org/2000/svg">
<path d="M81.0908 66.0065C78.8847 88.4756 59.1239 92.9608 46.5781 92.4303C34.0322 91.8998 12.5163 82.6524 8.15543 66.0238C3.79458 49.3953 12.6372 34.2602 16.1123 29.6942C16.8734 24.5806 23.5711 13.0381 32.3845 7.41358C39.4353 2.91397 43.8365 9.26459 45.1557 13.0024C48.764 8.82282 52.0071 8.03917 56.1862 9.83773C59.5295 11.2766 61.7896 16.3272 62.5018 18.6727C65.1445 15.6626 71.0303 11.8688 76.8672 16.1376C81.5368 19.5526 80.5299 26.2152 79.4428 29.1197C84.7085 25.6006 90.7574 24.0717 93.7083 33.6609C96.069 41.3322 86.1421 53.818 80.8836 59.102C81.4858 60.3544 81.2727 64.2268 81.0908 66.0065Z" fill="white"/>
<path d="M45.2029 12.7975C43.7489 8.63393 38.6714 2.10368 29.9928 9.2914C19.1446 18.276 13.5614 31.0737 16.7985 37.0208C19.3882 41.7785 25.226 40.6971 27.6891 39.5312" stroke="#D9D9D9"/>
<path d="M28.3294 71.4068C38.9496 57.16 50.7426 57.923 61.4298 59.2986C55.1327 57.847 41.0683 50.8323 42.143 42.3763C43.4864 31.8064 83.8484 37.92 81.0908 66.0065C78.8847 88.4756 59.5846 92.7966 46.578 92.4303C33.5714 92.0639 12.2727 82.4468 8.15536 66.0238C4.03806 49.6008 12.6372 34.2602 16.1122 29.6941" stroke="#D9D9D9"/>
<path d="M80.8674 59.0982C87.3065 53.2051 98.554 39.0467 92.0316 29.5582C85.5092 20.0697 73.5171 33.6804 68.3364 41.6718" stroke="#D9D9D9"/>
<path d="M79.4786 29.3173C80.7174 25.5291 81.4008 17.3629 74.2212 15.0113C66.5684 12.5048 58.4357 19.4032 49.5248 37.5279" stroke="#D9D9D9"/>
<path d="M62.601 18.2423C60.7005 12.9401 54.6503 4.34372 45.653 12.3754C34.4064 22.4149 22.2164 40.4279 30.0152 48.4897C34.1746 52.7894 41.4333 50.2865 43.5467 47.7609" stroke="#D9D9D9"/>
</svg>
