<svg width="224" height="138" viewBox="0 0 224 138" fill="none" xmlns="http://www.w3.org/2000/svg">
<path d="M101.536 172.57C81.6199 160.825 71.3756 138.562 69.1623 132.138C67.0441 125.989 66.95 117.646 76.891 114.851C77.4673 112.575 79.4719 107.527 82.8802 105.542C87.1405 103.061 91.49 104.208 93.115 105.102C83.6719 91.5224 66.499 63.07 73.353 57.9001C81.9205 51.4377 105.691 90.9865 112.283 99.4599C106.843 83.1682 96.6051 46.1242 105.784 43.4286C117.257 40.0591 133.231 102.245 134.098 106.579C135.364 106.297 136.637 106.072 137.91 105.91C157.879 103.373 165.65 130.196 157.508 151.341C149.324 172.593 121.451 184.315 101.536 172.57Z" fill="white"/>
<path d="M133.998 106.519C128.84 85.3879 115.814 42.3019 106.223 43.4732C96.6326 44.6445 106.437 82.464 112.283 99.4598C102.657 84.8881 80.8729 52.8962 73.8964 57.5141C66.1199 62.6616 82.2728 89.0536 93.3347 105.165" stroke="#D9D9D9" stroke-linecap="round"/>
<path d="M78.8229 130.507C85.4074 140.798 103.947 160.377 109.519 149.615C112.949 142.99 92.1669 111.592 78.2891 114.509C66.9456 116.894 66.9491 125.713 69.1623 132.138C71.3755 138.562 81.6199 160.825 101.536 172.57C121.451 184.315 149.324 172.593 157.508 151.341C165.65 130.196 157.879 103.373 137.91 105.91C116.324 108.653 94.6106 129.707 105.752 133.171C111.214 134.87 120.896 131.733 130.873 128.219M141.819 124.405C138.261 125.579 134.547 126.925 130.873 128.219M130.873 128.219C127.758 132.666 122.616 143.872 126.969 153.115" stroke="#D9D9D9" stroke-linecap="round"/>
<path d="M76.935 114.903C79.0406 105.887 89.6391 93.408 109.06 119.746" stroke="#D9D9D9" stroke-linecap="round"/>
<path d="M116.365 132.925C117.586 135.552 118.57 140.914 115.135 142.914C111.701 144.915 108.922 142.33 107.961 140.787" stroke="#D9D9D9" stroke-linecap="round"/>
</svg>
