<svg width="308" height="155" viewBox="0 0 308 155" fill="none" xmlns="http://www.w3.org/2000/svg">
<path d="M132.536 189.57C112.62 177.825 102.376 155.562 100.162 149.138C98.0441 142.989 97.95 134.646 107.891 131.851C108.467 129.575 110.472 124.527 113.88 122.542C118.141 120.061 122.49 121.208 124.115 122.102C114.672 108.522 97.499 80.07 104.353 74.9001C112.921 68.4377 136.691 107.987 143.283 116.46C137.843 100.168 127.605 63.1242 136.784 60.4286C148.257 57.0591 164.231 119.245 165.098 123.579C166.364 123.297 167.637 123.072 168.91 122.91C188.879 120.373 196.65 147.196 188.508 168.341C180.324 189.593 152.451 201.315 132.536 189.57Z" fill="white"/>
<path d="M164.998 123.519C159.84 102.388 146.814 59.3019 137.223 60.4732C127.633 61.6445 137.437 99.464 143.283 116.46C133.657 101.888 111.873 69.8962 104.896 74.5141C97.1199 79.6616 113.273 106.054 124.335 122.165" stroke="#D9D9D9" stroke-linecap="round"/>
<path d="M109.823 147.507C116.407 157.798 134.947 177.377 140.519 166.615C143.949 159.99 123.167 128.592 109.289 131.509C97.9456 133.894 97.9491 142.713 100.162 149.138C102.376 155.562 112.62 177.825 132.536 189.57C152.451 201.315 180.324 189.593 188.508 168.341C196.65 147.196 188.879 120.373 168.91 122.91C147.324 125.653 125.611 146.707 136.752 150.171C142.214 151.87 151.896 148.733 161.873 145.219M172.819 141.405C169.261 142.579 165.547 143.925 161.873 145.219M161.873 145.219C158.758 149.666 153.616 160.872 157.969 170.115" stroke="#D9D9D9" stroke-linecap="round"/>
<path d="M107.935 131.903C110.041 122.887 120.639 110.408 140.06 136.746" stroke="#D9D9D9" stroke-linecap="round"/>
<path d="M147.365 149.925C148.586 152.552 149.57 157.914 146.135 159.914C142.701 161.915 139.922 159.33 138.961 157.787" stroke="#D9D9D9" stroke-linecap="round"/>
<path d="M81.0908 81.0065C78.8847 103.476 59.1239 107.961 46.5781 107.43C34.0322 106.9 12.5163 97.6524 8.15543 81.0238C3.79458 64.3953 12.6372 49.2602 16.1123 44.6942C16.8734 39.5806 23.5711 28.0381 32.3845 22.4136C39.4353 17.914 43.8365 24.2646 45.1557 28.0024C48.764 23.8228 52.0071 23.0392 56.1862 24.8377C59.5295 26.2766 61.7896 31.3272 62.5018 33.6727C65.1445 30.6626 71.0303 26.8688 76.8672 31.1376C81.5368 34.5526 80.5299 41.2152 79.4428 44.1197C84.7085 40.6006 90.7574 39.0717 93.7083 48.6609C96.069 56.3322 86.1421 68.818 80.8836 74.102C81.4858 75.3544 81.2727 79.2268 81.0908 81.0065Z" fill="white"/>
<path d="M45.2029 27.7975C43.7489 23.6339 38.6714 17.1037 29.9928 24.2914C19.1446 33.276 13.5614 46.0737 16.7985 52.0208C19.3882 56.7785 25.226 55.6971 27.6891 54.5312" stroke="#D9D9D9"/>
<path d="M28.3294 86.4068C38.9496 72.16 50.7426 72.923 61.4298 74.2986C55.1327 72.847 41.0683 65.8323 42.143 57.3763C43.4864 46.8064 83.8484 52.92 81.0908 81.0065C78.8847 103.476 59.5846 107.797 46.578 107.43C33.5714 107.064 12.2727 97.4468 8.15536 81.0238C4.03806 64.6008 12.6372 49.2602 16.1122 44.6941" stroke="#D9D9D9"/>
<path d="M80.8674 74.0982C87.3065 68.2051 98.554 54.0467 92.0316 44.5582C85.5092 35.0697 73.5171 48.6804 68.3364 56.6718" stroke="#D9D9D9"/>
<path d="M79.4786 44.3173C80.7174 40.5291 81.4008 32.3629 74.2212 30.0113C66.5684 27.5048 58.4357 34.4032 49.5248 52.5279" stroke="#D9D9D9"/>
<path d="M62.601 33.2423C60.7005 27.9401 54.6503 19.3437 45.653 27.3754C34.4064 37.4149 22.2164 55.4279 30.0152 63.4897C34.1746 67.7894 41.4333 65.2865 43.5467 62.7609" stroke="#D9D9D9"/>
<path d="M200.07 68.3552C193.064 91.9165 191.194 107.217 200.938 123.777C210.683 140.337 240.311 146.575 258.615 128.675C272.461 115.135 292.59 87.4705 287.302 79.0391C282.877 71.9854 265.062 89.7398 259.605 97.7446C272.577 69.6348 295.993 35.3416 286.787 31.3667C279.477 28.2097 258.595 61.1849 249.068 78.0672C255.834 64.3474 280.252 22.0457 272.934 16.9292C262.543 9.66376 239.343 59.3524 232.405 72.4962C238.799 58.496 260.472 14.6297 248.051 15.459C239.058 16.0596 220.343 57.8256 217.095 69.4008C223.33 41.4409 237.167 23.3394 227.503 22.4439C223.923 22.1121 208.827 38.9037 200.07 68.3552Z" fill="white"/>
<path d="M252.515 99.1871C239.99 96.4428 227.764 103.667 222.085 114.064M200.938 123.777C191.194 107.217 193.064 91.9165 200.07 68.3552C208.827 38.9037 223.923 22.1121 227.503 22.4439C237.167 23.3394 223.33 41.4409 217.095 69.4008C220.343 57.8256 239.058 16.0596 248.051 15.459C260.472 14.6297 238.799 58.496 232.405 72.4962C239.343 59.3524 262.543 9.66376 272.934 16.9292C280.252 22.0457 255.834 64.3474 249.068 78.0672C258.595 61.1849 279.477 28.2097 286.787 31.3667C295.993 35.3416 272.577 69.6348 259.605 97.7446C265.062 89.7398 282.877 71.9854 287.302 79.0391C292.59 87.4705 272.461 115.135 258.615 128.675C240.311 146.575 210.683 140.337 200.938 123.777Z" stroke="#D9D9D9"/>
</svg>
