<svg width="127" height="153" viewBox="0 0 127 153" fill="none" xmlns="http://www.w3.org/2000/svg">
<path d="M19.0697 68.3552C12.0636 91.9165 10.1936 107.217 19.9384 123.777C29.6831 140.337 59.311 146.575 77.6152 128.675C91.4614 115.135 111.59 87.4705 106.302 79.0391C101.877 71.9854 84.0618 89.7398 78.6047 97.7446C91.5773 69.6348 114.993 35.3416 105.787 31.3667C98.4766 28.2097 77.5947 61.1849 68.0676 78.0672C74.8343 64.3474 99.2524 22.0457 91.9344 16.9292C81.5427 9.66376 58.3426 59.3524 51.4053 72.4962C57.7988 58.496 79.4721 14.6297 67.0515 15.459C58.0577 16.0596 39.3429 57.8256 36.0947 69.4008C42.3298 41.4409 56.1669 23.3394 46.5034 22.4439C42.9235 22.1121 27.8273 38.9037 19.0697 68.3552Z" fill="white"/>
<path d="M71.5149 99.1871C58.9897 96.4428 46.7642 103.667 41.0853 114.064M19.9384 123.777C10.1936 107.217 12.0636 91.9165 19.0697 68.3552C27.8273 38.9037 42.9235 22.1121 46.5034 22.4439C56.1669 23.3394 42.3299 41.4409 36.0947 69.4008C39.3429 57.8256 58.0577 16.0596 67.0515 15.459C79.4721 14.6297 57.7988 58.496 51.4053 72.4962C58.3426 59.3524 81.5427 9.66376 91.9344 16.9292C99.2524 22.0457 74.8343 64.3474 68.0676 78.0672C77.5947 61.1849 98.4766 28.2097 105.787 31.3667C114.993 35.3416 91.5773 69.6348 78.6047 97.7446C84.0618 89.7398 101.877 71.9854 106.302 79.0391C111.59 87.4705 91.4614 115.135 77.6152 128.675C59.311 146.575 29.6831 140.337 19.9384 123.777Z" stroke="#D9D9D9"/>
</svg>
