<svg width="81" height="128" viewBox="0 0 81 128" fill="none" xmlns="http://www.w3.org/2000/svg">
<path d="M9.50002 30.0078L9.50002 6.12454L71.175 6.12454V30.0078C71.175 40.3767 65.7312 49.9844 56.8365 55.3135L55.5599 56.0783C48.7552 60.1553 48.7552 70.0156 55.5599 74.0926L56.8365 74.8574C65.7312 80.1865 71.175 89.7942 71.175 100.163V120.832H9.50002L9.50002 100.163C9.50002 89.7942 14.9438 80.1865 23.8386 74.8574L25.1151 74.0926C31.9199 70.0156 31.9199 60.1553 25.1151 56.0783L23.8386 55.3135C14.9438 49.9844 9.50002 40.3767 9.50002 30.0078Z" fill="#FFE4C2" stroke="#271A58"/>
<rect x="0.5" y="0.5" width="79.3526" height="11.8564" fill="#9A48F1" stroke="#271A58"/>
<rect x="0.500012" y="115.404" width="79.3526" height="11.8564" fill="#9A48F1" stroke="#271A58"/>
<path d="M42.3287 65.4872C44.7393 54.6396 52.6169 49.7767 58.2416 47.5C42.9746 37.0542 27.3751 40.3128 19.7416 47.5C30.2416 52 37.1058 60.6364 37.9093 65.4872V95.6195C16.0534 95.6195 13 108.744 13 115.306H67.6398C66.6755 101.807 49.5604 96.5569 42.3287 95.6195V65.4872Z" fill="#FFB53D" stroke="#271A58"/>
</svg>
