<svg width="156" height="136" viewBox="0 0 156 136" fill="none" xmlns="http://www.w3.org/2000/svg">
<path d="M44.3862 112.596C10.4552 82.6682 -17.6071 35.2374 16.2019 9.40742C45.8053 -13.2072 78.4637 16.9619 78.4637 16.9619C78.4637 16.9619 115.169 -10.6788 143.13 11.2365C170.167 32.4281 147.553 81.6178 112.901 112.617L92.6185 127.671C87.9429 130.426 82.4831 133.15 77.7252 135C73.364 133.046 68.5817 130.469 63.9031 127.485" fill="#FF9E00"/>
<path d="M14.8651 79.0589C14.8651 79.0589 7.27507 96.2046 9.92107 108.517C12.5671 120.828 22.6872 130.841 39.4787 131.876C45.9427 132.276 51.961 130.869 57.1828 129.476C59.5206 128.853 61.6691 128.194 63.5308 127.571L68.0964 125.958L78.0395 121.879C78.0395 121.879 86.9389 125.61 88.0314 126.007C89.124 126.404 96.3845 128.643 98.4232 129.29C100.462 129.937 110.951 132.524 120 131.528C129.049 130.533 136.953 124.364 136.953 124.364C136.953 124.364 142.969 119.241 144.907 112.923C146.845 106.605 146.549 99.2948 146.448 98.5986C146.347 97.9024 145.007 90.3418 144.26 87.5051C143.515 84.6683 141.147 79.1902 141.147 79.1902L139.093 82.1186L134.695 88.525L131.082 93.3984L125.896 99.4903C125.896 99.4903 127.349 103.341 126.446 105.347C125.542 107.353 123.815 109.317 123.815 109.317L119.927 111.595L116.982 112.578L112.907 112.617C112.907 112.617 108.891 111.714 107.673 111.555C106.456 111.399 102.333 109.591 102.333 109.591C102.333 109.591 107.558 105.936 108.461 105.426C109.364 104.916 114.195 100.278 115.019 98.904C115.843 97.5299 118.319 93.8351 116.786 88.9616C115.254 84.0881 109.953 82.0056 109.953 82.0056C109.953 82.0056 106.34 80.6315 101.783 82.9492C97.2268 85.2668 95.6948 86.9188 95.6948 86.9188C95.6948 86.9188 97.9715 80.0025 94.3977 78.8238C90.8239 77.6451 87.2501 84.1278 87.2501 84.1278L82.9683 92.2228L81.8696 94.5801L79.5533 96.1527L72.955 91.319C72.955 91.319 65.5786 75.9932 59.5999 78.9399C56.9692 80.2376 59.0903 85.8561 59.0903 85.8561C59.0903 85.8561 54.0638 82.595 51.6283 82.0056C49.1929 81.4163 45.5398 81.1415 42.2804 84.5217C39.0209 87.902 38.5479 90.809 38.6273 93.6C38.7066 96.3909 42.0057 100.556 42.6741 101.106C43.3424 101.655 45.2651 103.661 45.2651 103.661L50.49 107.591L54.1828 109.833L51.076 111.133L47.667 111.979L46.0067 112.401L44.9813 112.611L44.0963 112.608L42.8847 112.795L39.8755 112.734L36.555 111.708L33.5458 110.156L30.909 107.549L29.3891 104.196L29.3586 101.246L29.9049 98.3207L23.0503 90.2991L16.6841 81.5415L14.8651 79.0589Z" fill="#D9B6FF"/>
<path d="M92.6185 127.671C87.943 130.426 82.4832 133.15 77.7253 135C73.3641 133.046 68.5818 130.469 63.9032 127.485" stroke="#271A58" stroke-miterlimit="10" stroke-linecap="round"/>
<path d="M44.3862 112.596C10.4552 82.6682 -17.6071 35.2374 16.2019 9.40742C45.8053 -13.2072 78.4637 16.9619 78.4637 16.9619C78.4637 16.9619 115.169 -10.6788 143.13 11.2365C170.167 32.4281 147.553 81.6178 112.901 112.617" stroke="#271A58" stroke-miterlimit="10" stroke-linecap="round"/>
<path d="M55.0647 72.6037C66.1571 72.6037 75.1492 63.6067 75.1492 52.5083C75.1492 41.4099 66.1571 32.4129 55.0647 32.4129C43.9723 32.4129 34.9801 41.4099 34.9801 52.5083C34.9801 63.6067 43.9723 72.6037 55.0647 72.6037Z" stroke="#271A58" stroke-miterlimit="10" stroke-linecap="round"/>
<path d="M55.0648 67.6448C63.4199 67.6448 70.1931 60.8679 70.1931 52.5083C70.1931 44.1487 63.4199 37.3719 55.0648 37.3719C46.7097 37.3719 39.9365 44.1487 39.9365 52.5083C39.9365 60.8679 46.7097 67.6448 55.0648 67.6448Z" fill="#271A58"/>
<path d="M50.2275 54.1236C53.0659 54.1236 55.3669 51.8214 55.3669 48.9814C55.3669 46.1415 53.0659 43.8393 50.2275 43.8393C47.3891 43.8393 45.0881 46.1415 45.0881 48.9814C45.0881 51.8214 47.3891 54.1236 50.2275 54.1236Z" fill="white"/>
<path d="M66.9209 54.2325C68.142 51.283 66.7422 47.9016 63.7943 46.6798C60.8464 45.4581 57.4668 46.8587 56.2457 49.8082C55.0247 52.7576 56.4245 56.1391 59.3724 57.3608C62.3203 58.5825 65.6999 57.1819 66.9209 54.2325Z" fill="white"/>
<path d="M52.8827 63.608C54.6019 63.608 55.9957 62.2135 55.9957 60.4933C55.9957 58.7732 54.6019 57.3787 52.8827 57.3787C51.1635 57.3787 49.7698 58.7732 49.7698 60.4933C49.7698 62.2135 51.1635 63.608 52.8827 63.608Z" fill="white"/>
<path d="M103.66 72.6037C114.753 72.6037 123.745 63.6067 123.745 52.5083C123.745 41.4099 114.753 32.4129 103.66 32.4129C92.5678 32.4129 83.5757 41.4099 83.5757 52.5083C83.5757 63.6067 92.5678 72.6037 103.66 72.6037Z" stroke="#271A58" stroke-miterlimit="10" stroke-linecap="round"/>
<path d="M103.66 67.6448C112.015 67.6448 118.789 60.8679 118.789 52.5083C118.789 44.1487 112.015 37.3719 103.66 37.3719C95.3053 37.3719 88.5321 44.1487 88.5321 52.5083C88.5321 60.8679 95.3053 67.6448 103.66 67.6448Z" fill="#271A58"/>
<path d="M98.8229 54.1236C101.661 54.1236 103.962 51.8214 103.962 48.9814C103.962 46.1415 101.661 43.8393 98.8229 43.8393C95.9845 43.8393 93.6835 46.1415 93.6835 48.9814C93.6835 51.8214 95.9845 54.1236 98.8229 54.1236Z" fill="white"/>
<path d="M115.519 54.2297C116.74 51.2802 115.34 47.8988 112.392 46.677C109.444 45.4553 106.065 46.8559 104.844 49.8054C103.623 52.7549 105.023 56.1363 107.97 57.358C110.918 58.5798 114.298 57.1791 115.519 54.2297Z" fill="white"/>
<path d="M101.478 63.608C103.197 63.608 104.591 62.2135 104.591 60.4933C104.591 58.7732 103.197 57.3787 101.478 57.3787C99.7587 57.3787 98.365 58.7732 98.365 60.4933C98.365 62.2135 99.7587 63.608 101.478 63.608Z" fill="white"/>
<path d="M85.4922 70.1578C85.4922 70.1578 85.2938 78.094 79.1259 78.323C72.958 78.552 72.2439 70.6159 72.2439 70.6159L85.4922 70.1578Z" fill="#271A58"/>
<path d="M29.9354 98.1558C29.9354 98.1558 25.8184 107.997 37.7238 112.205C50.6303 116.767 81.9093 94.571 81.9093 94.571C81.9093 94.571 89.0171 76.5642 94.5411 78.8971C98.1759 80.433 95.5909 87.0592 95.5909 87.0592" stroke="#271A58" stroke-miterlimit="10" stroke-linecap="round"/>
<path d="M89.8536 92.7755C89.8536 92.7755 104.289 74.9947 113.603 84.3141C123.278 93.9939 112.584 103.75 101.432 109.936C85.1567 118.963 51.4912 137.147 30.546 130.365C-4.75843 118.932 14.8928 79.1017 14.8928 79.1017" stroke="#271A58" stroke-miterlimit="10" stroke-linecap="round"/>
<path d="M111.571 82.9431L94.6906 96.5894" stroke="#271A58" stroke-miterlimit="10" stroke-linecap="round"/>
<path d="M115.752 87.2028L99.061 101.527" stroke="#271A58" stroke-miterlimit="10" stroke-linecap="round"/>
<path d="M79.4313 96.1222C75.5066 93.3648 72.9766 91.38 72.9766 91.38C72.9766 91.38 66.3539 77.4986 60.3661 78.6559C56.4932 79.404 59.1057 86.018 59.1057 86.018" stroke="#271A58" stroke-miterlimit="10" stroke-linecap="round"/>
<path d="M125.964 99.5941C125.964 99.5941 130.157 108.001 118.251 112.208C114.278 113.613 108.464 112.178 102.314 109.521" stroke="#271A58" stroke-miterlimit="10" stroke-linecap="round"/>
<path d="M78.0182 121.894C93.8301 128.951 112.175 134.655 125.429 130.362C160.734 118.929 141.083 79.0986 141.083 79.0986" stroke="#271A58" stroke-miterlimit="10" stroke-linecap="round"/>
<path d="M66.1221 92.7755C66.1221 92.7755 51.6866 74.9947 42.3722 84.3141C32.6976 93.9939 43.1595 103.677 54.3112 109.863" stroke="#271A58" stroke-miterlimit="10" stroke-linecap="round"/>
<path d="M44.4045 82.9431L59.3131 94.9557" stroke="#271A58" stroke-miterlimit="10" stroke-linecap="round"/>
<path d="M40.2235 87.2028L54.4789 100.11" stroke="#271A58" stroke-miterlimit="10" stroke-linecap="round"/>
<path d="M45.0394 29.6311C44.545 29.6311 44.0628 29.3929 43.7698 28.9532C43.3029 28.254 43.489 27.3104 44.1849 26.8402C44.5175 26.6172 52.4677 21.3926 62.7954 25.3897C63.5828 25.6951 63.9734 26.5776 63.6682 27.3654C63.363 28.1532 62.481 28.544 61.6936 28.2387C52.895 24.834 46.1656 29.1914 45.8817 29.3807C45.6223 29.5487 45.3293 29.6311 45.0394 29.6311Z" fill="#271A58"/>
<path d="M94.9836 29.8907C94.4892 29.8907 94.007 29.6525 93.714 29.2128C93.2471 28.5135 93.4332 27.57 94.1291 27.0997C94.4617 26.8768 102.412 21.6522 112.74 25.6493C113.527 25.9546 113.918 26.8371 113.612 27.6249C113.307 28.4127 112.425 28.8036 111.638 28.4982C102.839 25.0935 96.1098 29.4509 95.8259 29.6403C95.5665 29.8082 95.2735 29.8907 94.9836 29.8907Z" fill="#271A58"/>
</svg>
