<svg width="95" height="95" viewBox="0 0 95 95" fill="none" xmlns="http://www.w3.org/2000/svg">
<rect width="94.5136" height="94.5136" rx="47.2568" fill="#E9D4FF"/>
<mask id="mask0_1_717" style="mask-type:alpha" maskUnits="userSpaceOnUse" x="0" y="0" width="95" height="95">
<rect width="94.5136" height="94.5136" rx="47.2568" fill="#FFE4C2"/>
</mask>
<g mask="url(#mask0_1_717)">
<path d="M39.049 31.8361C59.5435 26.4638 59.8586 5.72054 57.4543 -3.97954L-10.4462 -6.21802C-20.0634 20.4779 -32.6818 74.7154 -6.21801 78.098C26.8617 82.3263 13.4309 38.5516 39.049 31.8361Z" fill="#F9EBFF"/>
<path d="M40.5413 75.1134C38.7506 90.2356 25.0378 96.3375 18.4053 97.4982L142.019 108.691C136.63 103.55 128.737 90.7828 140.278 80.834C154.704 68.398 162.912 31.5874 129.583 27.6079C96.2546 23.6284 96.2546 46.7593 77.1032 47.5055C57.9517 48.2517 42.7798 56.2107 40.5413 75.1134Z" fill="#F9EBFF"/>
<path d="M66.7967 15.8701C75.8901 9.44893 65.0122 -0.943799 64.8831 -5.79973C86.5322 0.296095 137.734 18.8725 126.906 29.3178C113.371 42.3744 103.877 19.233 88.7449 28.748C73.6129 38.2631 55.4299 23.8965 66.7967 15.8701Z" fill="#F9EBFF"/>
</g>
<path d="M70.178 43.8609C77.4523 55.9219 69.2408 65.5331 62.7679 69.9455C56.295 74.3579 42.0854 77.7548 33.7042 71.0636C25.323 64.3724 24.1028 53.5053 24.1384 49.9258C22.6125 47.0843 21.6589 38.8138 23.97 32.7145C25.8189 27.835 30.3881 29.3704 32.4416 30.7481C32.688 27.3122 34.018 25.7111 36.7788 25.0525C38.9875 24.5256 42.0011 26.2091 43.2318 27.1167C43.4313 24.6258 44.9607 20.5337 49.4718 20.4925C53.0807 20.4596 55.0613 24.1675 55.6004 26.0255C56.9221 22.302 59.3775 19.282 64.4288 22.978C68.4699 25.9348 68.1601 35.8811 67.5 40.4847C68.2682 40.8866 69.6055 42.9029 70.178 43.8609Z" fill="#FFB53D"/>
<path d="M32.3889 30.628C30.1092 29.0876 25.1348 27.7145 23.4739 34.5455C21.3979 43.0841 23.377 51.5669 27.2135 53.3345C30.2827 54.7486 32.7994 52.0311 33.5967 50.5296" stroke="#271A58"/>
<path d="M45.8018 66.2341C45.8018 55.1485 51.9849 51.1331 57.8432 47.8364C54.1523 49.4582 44.5022 51.1936 41.887 46.5634C38.6179 40.7758 61.0853 28.7846 70.1781 43.8609C77.4523 55.9219 69.4101 65.2792 62.7679 69.9455C56.1258 74.6118 41.887 77.7428 33.7042 71.0636C25.5215 64.3844 24.1028 53.5053 24.1385 49.9258" stroke="#271A58"/>
<path d="M67.4905 40.4888C68.5139 35.1404 68.8606 23.8651 62.0605 21.5511C55.2604 19.2371 54.337 30.5161 54.7253 36.4448" stroke="#271A58"/>
<path d="M55.692 26.111C54.8992 23.7544 52.1962 19.415 47.7283 20.9158C42.966 22.5154 41.4704 28.9981 43.7712 41.3861" stroke="#271A58"/>
<path d="M43.1209 26.8644C40.1934 24.921 33.9621 22.8772 32.4565 30.2491C30.5745 39.4639 31.1936 53.0185 38.1002 54.143C41.7837 54.7428 44.4811 50.7845 44.5965 48.7333" stroke="#271A58"/>
</svg>
