<svg width="183" height="141" viewBox="0 0 183 141" fill="none" xmlns="http://www.w3.org/2000/svg">
<path d="M11.8674 115.564C-9.97918 96.2576 6.59703 71.9614 14.2634 64.295L35.3459 76.2737C27.3602 83.6206 16.3566 93.0438 24.3256 101.013C30.5545 107.242 48.123 97.5158 57.3864 89.2106L75.594 101.668C59.6225 115.084 30.8444 132.334 11.8674 115.564Z" fill="#FFB53D" stroke="#271A58" stroke-linecap="round"/>
<path d="M53.5895 116.768C18.4045 85.7342 -10.6948 36.5506 24.3636 9.76598C55.0611 -13.6844 89.4894 17.3388 89.4894 17.3388C89.4894 17.3388 126.988 -11.0626 155.983 11.6626C184.019 33.6375 165.194 80.586 124.637 116.79L103.604 132.401C98.7559 135.257 93.0943 138.081 88.1605 140C83.6382 137.974 78.6791 135.301 73.8277 132.208" fill="#AD61FF"/>
<path d="M89.4629 17.5996C89.4629 17.5996 55.5976 -13.6844 24.9001 9.76598C-24.4896 47.4958 49.778 123.23 89.4629 140C135.066 118.438 196.396 46.5667 156.52 11.6627C127.525 -11.0626 89.4629 17.5996 89.4629 17.5996Z" stroke="#271A58" stroke-miterlimit="10" stroke-linecap="round"/>
<path d="M85.2028 54.4597C85.2028 65.9682 75.8783 75.2978 64.376 75.2978C52.8737 75.2978 43.5492 65.9682 43.5492 54.4597" stroke="#271A58" stroke-miterlimit="10" stroke-linecap="round"/>
<path d="M135.992 54.4597C135.992 65.9682 126.668 75.2978 115.165 75.2978C103.663 75.2978 94.3386 65.9682 94.3386 54.4597" stroke="#271A58" stroke-miterlimit="10" stroke-linecap="round"/>
<path d="M75.3523 30.0063C71.6754 36.1817 63.5222 40.8073 54.334 35.3366" stroke="#271A58" stroke-width="3" stroke-linecap="round"/>
<path d="M105.301 30.0063C108.978 36.1817 117.131 40.8073 126.32 35.3366" stroke="#271A58" stroke-width="3" stroke-linecap="round"/>
<ellipse cx="89.0103" cy="76.7528" rx="3.83316" ry="5.74974" fill="#271A58"/>
<path d="M62.6853 80.4265C59.8105 85.5374 55.3424 96.7921 61.2479 98.1549C67.4769 99.5924 68.4351 90.4886 62.6853 80.4265Z" fill="#F9EBFF" stroke="#271A58" stroke-linecap="round"/>
<path d="M115.578 97.8352C113.214 101.944 109.541 110.993 114.396 112.089C119.518 113.245 120.306 105.925 115.578 97.8352Z" fill="#F9EBFF" stroke="#271A58" stroke-linecap="round"/>
<path d="M174.298 118.918C193.943 101.189 170.263 70.7427 164.236 63.816C160.803 70.5184 157.826 76.8606 153.695 82.9818C156.434 86.8097 166.458 101.09 160.882 104.064C153.695 107.897 142.233 88.2367 135.008 76.7529C139.8 71.0031 128.3 59.8035 124.946 59.0245C122.228 58.3932 121.592 61.9143 123.988 66.0286C119.802 62.7484 113.023 58.6829 108.566 59.8035C107.242 60.1362 105.954 60.8149 104.731 61.9143C103.755 62.7904 103.024 63.7063 102.504 64.6485C98.3485 72.1744 106.647 85.3775 119.676 89.6898C136.446 123.23 157.434 134.137 174.298 118.918Z" fill="#FFB53D"/>
<path d="M108.566 59.8035C107.242 60.1362 105.954 60.8149 104.731 61.9143C103.755 62.7904 103.024 63.7063 102.504 64.6485M108.566 59.8035L120.072 71.7576M108.566 59.8035C113.023 58.6829 119.802 62.7484 123.988 66.0286M102.504 64.6485C98.3485 72.1744 106.647 85.3775 119.676 89.6898C136.446 123.23 157.434 134.137 174.298 118.918C193.943 101.189 170.263 70.7427 164.236 63.816C160.803 70.5184 157.826 76.8606 153.695 82.9818C156.434 86.8097 166.458 101.09 160.882 104.064C153.695 107.897 142.233 88.2367 135.008 76.7529C139.8 71.0031 128.3 59.8035 124.946 59.0245C122.228 58.3932 121.592 61.9143 123.988 66.0286M102.504 64.6485L113.497 75.5855M123.988 66.0286C125.891 67.5199 127.655 69.2451 129.177 71.0031" stroke="#271A58" stroke-linecap="round"/>
</svg>
