<svg width="96" height="122" viewBox="0 0 96 122" fill="none" xmlns="http://www.w3.org/2000/svg">
<rect x="1" y="17.9549" width="94.5136" height="94.5136" rx="47.2568" fill="#E9D4FF"/>
<mask id="mask0_1_735" style="mask-type:alpha" maskUnits="userSpaceOnUse" x="1" y="17" width="95" height="96">
<rect x="1" y="17.9549" width="94.5136" height="94.5136" rx="47.2568" fill="#FFE4C2"/>
</mask>
<g mask="url(#mask0_1_735)">
<path d="M40.049 49.791C60.5435 44.4187 60.8586 23.6754 58.4543 13.9754L-9.44625 11.7369C-19.0634 38.4328 -31.6818 92.6703 -5.21801 96.0529C27.8617 100.281 14.4309 56.5065 40.049 49.791Z" fill="#F9EBFF"/>
<path d="M41.5413 93.0683C39.7505 108.19 26.0377 114.292 19.4052 115.453L143.019 126.645C137.63 121.505 129.737 108.738 141.278 98.7889C155.704 86.3529 163.911 49.5423 130.583 45.5628C97.2545 41.5833 97.2545 64.7142 78.1031 65.4604C58.9516 66.2066 43.7797 74.1656 41.5413 93.0683Z" fill="#F9EBFF"/>
<path d="M67.7966 33.8249C76.89 27.4038 66.0121 17.0111 65.8831 12.1552C87.5321 18.251 138.734 36.8274 127.906 47.2726C114.371 60.3293 104.877 37.1879 89.7448 46.7029C74.6128 56.218 56.4298 41.8513 67.7966 33.8249Z" fill="#F9EBFF"/>
</g>
<g clip-path="url(#clip0_1_735)">
<path d="M28.5446 81.4697C21.4961 68.8851 22.9637 53.6671 23.7876 49.5089C24.5763 45.5292 27.145 41.0024 33.3816 42.6167C34.4069 41.5708 37.0725 39.4788 39.5332 39.4788C42.6089 39.4788 44.5933 41.4632 45.1886 42.4554C44.3618 32.1697 44.0377 11.4396 49.3558 10.8046C56.0034 10.0109 56.4003 38.7944 57.2933 45.4319C59.4761 34.9414 65.588 11.7571 71.3823 13.1859C78.6253 14.9718 67.7112 53.5108 66.8183 56.119C67.5894 56.3648 68.3462 56.643 69.0829 56.9554C80.6448 61.8576 76.4122 78.7576 65.3836 87.5998C54.299 96.4869 35.5931 94.0543 28.5446 81.4697Z" fill="#FFB53D"/>
<path d="M66.7834 56.0556C70.6374 43.0446 77.1432 15.7278 71.6053 13.3479C66.0675 10.9681 59.4781 34.4342 57.2934 45.4319C56.6797 34.5543 54.9808 10.4682 49.77 10.7672C43.9616 11.1004 44.3828 30.3996 45.2874 42.5582" stroke="#271A58" stroke-linecap="round"/>
<path d="M29.5074 51.6633C29.8259 59.2782 33.6728 75.6538 40.0558 71.6015C43.9848 69.1071 42.64 45.6561 34.2426 42.8715C27.3789 40.5954 24.6116 45.3508 23.7877 49.5089C22.9637 53.6671 21.4961 68.8851 28.5446 81.4697C35.5931 94.0543 54.299 96.4869 65.3836 87.5998C76.4122 78.7576 80.6448 61.8576 69.0829 56.9554C56.5853 51.6564 38.2695 56.1889 43.1879 61.5545C45.5994 64.1852 51.8031 65.5341 58.2855 66.7722M65.3836 68.1532C63.0967 67.6689 60.6722 67.2281 58.2855 66.7722M58.2855 66.7722C55.2097 68.1916 48.9193 72.6178 48.3636 78.9678" stroke="#271A58" stroke-linecap="round"/>
<path d="M33.3892 42.6584C37.3551 38.4592 46.9866 35.0598 49.1862 55.356" stroke="#271A58" stroke-linecap="round"/>
<path d="M48.9864 64.7541C48.8198 66.5537 47.6667 69.7531 45.1871 69.7531C42.7076 69.7531 42.0211 67.4869 41.9877 66.3538" stroke="#271A58" stroke-linecap="round"/>
</g>
<defs>
<clipPath id="clip0_1_735">
<rect width="96" height="121" fill="white" transform="translate(0 0.51355)"/>
</clipPath>
</defs>
</svg>
